<svg width="311" height="171" viewBox="0 0 311 171" fill="none" xmlns="http://www.w3.org/2000/svg">
<path fill-rule="evenodd" clip-rule="evenodd" d="M65.5591 170.385C65.5591 170.385 57.9358 164.435 47.8496 154.361L65.6192 134.979L83.3313 154.298C73.2141 164.41 65.5591 170.385 65.5591 170.385Z" fill="white"/>
<path fill-rule="evenodd" clip-rule="evenodd" d="M1.87526 76.5577C-5.99954 47.1308 11.2575 9.80535 47.4262 0.346718L64.6582 19.1424L82.2082 0C119.321 8.85629 137.121 46.7572 129.146 76.5577C124.75 92.9838 115.884 108.442 106.131 121.664C102.137 127.079 97.9939 132.119 93.9485 136.697L80.9371 122.505L78.5526 119.904L65.5703 105.744L52.5881 119.904L50.1421 122.572L37.1313 136.763C33.0852 132.188 28.9404 127.15 24.9434 121.737C21.7484 117.409 18.6477 112.842 15.7674 108.079L29.4277 93.4764C32.0467 98.2298 34.9983 102.869 38.149 107.333L51.4634 92.8104L64.9869 78.1064L47.8496 60.2621C54.5417 53.5781 60.1497 46.9377 63.1661 44.4179L42.543 22.7526C24.0562 32.6852 15.8559 54.125 20.2798 71.2927L5.37833 87.2216C4.0205 83.7225 2.84018 80.1634 1.87526 76.5577ZM66.8926 44.4179C69.5078 46.5616 75.7234 52.6582 83.3313 60.2621L66.1659 78.1064L79.6773 92.8104L92.9241 107.259C100.758 96.1469 107.354 83.9578 110.658 71.6102C115.429 53.7797 106.483 31.2064 86.4607 21.7343L87.0794 22.3524L66.8926 44.4179Z" fill="white"/>
<path fill-rule="evenodd" clip-rule="evenodd" d="M204.332 9.46237L195.646 44.8577H183.546L178.676 23.1687L173.706 44.8577H161.606L153.021 9.46237H163.665L167.782 33.6618L173.355 9.46237H184.149L189.571 33.4609L193.688 9.46237H204.332ZM222.616 17.3447V23.1185H233.912V30.5992H222.616V36.9754H235.418V44.8577H212.775V9.46237H235.418V17.3447H222.616ZM272.061 29.7959C270.856 28.1893 269.216 27.1517 267.141 26.6831C268.948 26.181 270.388 25.2439 271.459 23.8716C272.563 22.4658 273.116 20.7253 273.116 18.6501C273.116 15.7381 272.078 13.4789 270.003 11.8723C267.961 10.2657 265.133 9.46237 261.518 9.46237H244.548V44.8577H262.07C265.819 44.8577 268.731 44.0042 270.806 42.2972C272.881 40.5902 273.919 38.2305 273.919 35.2182C273.919 33.1764 273.3 31.369 272.061 29.7959ZM259.359 23.5201H254.389V17.2945H259.359C261.836 17.2945 263.074 18.3489 263.074 20.4575C263.074 22.4993 261.836 23.5201 259.359 23.5201ZM263.827 33.8124C263.827 35.8876 262.589 36.9252 260.112 36.9252H254.389V30.4988H260.062C261.267 30.4988 262.187 30.7833 262.823 31.3523C263.493 31.9213 263.827 32.7413 263.827 33.8124ZM202.432 100.391C205.21 101.931 208.256 102.701 211.57 102.701C214.883 102.701 217.929 101.931 220.707 100.391C223.485 98.8182 225.678 96.6593 227.284 93.9147C228.891 91.1366 229.694 88.0071 229.694 84.5261C229.694 81.0452 228.891 77.9324 227.284 75.1878C225.678 72.4097 223.485 70.2508 220.707 68.7112C217.963 67.1715 214.917 66.4017 211.57 66.4017C208.256 66.4017 205.21 67.1715 202.432 68.7112C199.654 70.2508 197.445 72.4097 195.805 75.1878C194.198 77.9324 193.395 81.0452 193.395 84.5261C193.395 88.0071 194.198 91.1366 195.805 93.9147C197.445 96.6593 199.654 98.8182 202.432 100.391ZM217.494 91.1032C216.055 92.7432 214.08 93.5633 211.57 93.5633C209.026 93.5633 207.034 92.76 205.595 91.1534C204.156 89.5133 203.436 87.3042 203.436 84.5261C203.436 81.7146 204.156 79.5055 205.595 77.8989C207.034 76.2589 209.026 75.4388 211.57 75.4388C214.08 75.4388 216.055 76.2589 217.494 77.8989C218.967 79.5055 219.703 81.7146 219.703 84.5261C219.703 87.2707 218.967 89.4631 217.494 91.1032ZM184.701 102.349V66.954H174.861V80.2586H162.862V66.954H153.021V102.349H162.862V88.141H174.861V102.349H184.701ZM251.74 102.701C247.623 102.701 244.243 101.73 241.599 99.7888C238.954 97.814 237.532 95.0025 237.331 91.3542H247.824C247.925 92.5926 248.293 93.4963 248.929 94.0653C249.565 94.6343 250.385 94.9188 251.389 94.9188C252.293 94.9188 253.029 94.7013 253.598 94.2662C254.2 93.7976 254.502 93.1616 254.502 92.3583C254.502 91.3207 254.016 90.5174 253.046 89.9484C252.075 89.3794 250.502 88.7435 248.326 88.0406C246.017 87.2707 244.142 86.5344 242.703 85.8315C241.297 85.0951 240.059 84.0408 238.988 82.6685C237.95 81.2627 237.431 79.4386 237.431 77.196C237.431 74.92 238 72.9787 239.138 71.3721C240.276 69.732 241.85 68.4936 243.858 67.6569C245.866 66.8201 248.142 66.4017 250.686 66.4017C254.803 66.4017 258.083 67.3724 260.526 69.3137C263.003 71.2215 264.325 73.9159 264.493 77.3969H253.799C253.765 76.3258 253.431 75.5225 252.795 74.987C252.192 74.4514 251.406 74.1837 250.435 74.1837C249.699 74.1837 249.096 74.4012 248.627 74.8363C248.159 75.2715 247.925 75.8907 247.925 76.694C247.925 77.3634 248.176 77.9491 248.678 78.4512C249.213 78.9198 249.866 79.3382 250.636 79.7063C251.406 80.0411 252.544 80.4762 254.05 81.0117C256.292 81.7815 258.133 82.5514 259.572 83.3212C261.045 84.0575 262.3 85.1119 263.338 86.4842C264.409 87.823 264.944 89.53 264.944 91.6052C264.944 93.7139 264.409 95.605 263.338 97.2785C262.3 98.9521 260.777 100.274 258.769 101.245C256.794 102.215 254.451 102.701 251.74 102.701ZM300.446 74.7861V66.954H271.829V74.7861H281.167V102.349H291.007V74.7861H300.446Z" fill="white"/>
<path d="M194.341 125.253V160.648H184.5V141.118L177.823 160.648H169.589L162.862 140.968V160.648H153.021V125.253H164.92L173.806 148.247L182.492 125.253H194.341Z" fill="white"/>
<path d="M221.18 161C217.866 161 214.82 160.23 212.042 158.69C209.264 157.117 207.055 154.958 205.415 152.214C203.808 149.436 203.005 146.306 203.005 142.825C203.005 139.344 203.808 136.231 205.415 133.487C207.055 130.709 209.264 128.55 212.042 127.01C214.82 125.471 217.866 124.701 221.18 124.701C224.527 124.701 227.572 125.471 230.317 127.01C233.095 128.55 235.287 130.709 236.894 133.487C238.501 136.231 239.304 139.344 239.304 142.825C239.304 146.306 238.501 149.436 236.894 152.214C235.287 154.958 233.095 157.117 230.317 158.69C227.539 160.23 224.493 161 221.18 161ZM221.18 151.862C223.69 151.862 225.665 151.042 227.104 149.402C228.577 147.762 229.313 145.57 229.313 142.825C229.313 140.014 228.577 137.805 227.104 136.198C225.665 134.558 223.69 133.738 221.18 133.738C218.636 133.738 216.644 134.558 215.205 136.198C213.766 137.805 213.046 140.014 213.046 142.825C213.046 145.603 213.766 147.812 215.205 149.452C216.644 151.059 218.636 151.862 221.18 151.862Z" fill="white"/>
<path d="M261.35 161C257.233 161 253.853 160.029 251.208 158.088C248.564 156.113 247.142 153.302 246.941 149.653H257.434C257.534 150.892 257.902 151.795 258.538 152.364C259.174 152.933 259.994 153.218 260.999 153.218C261.902 153.218 262.639 153 263.208 152.565C263.81 152.097 264.111 151.461 264.111 150.657C264.111 149.62 263.626 148.817 262.655 148.247C261.685 147.678 260.112 147.043 257.936 146.34C255.626 145.57 253.752 144.833 252.313 144.131C250.907 143.394 249.669 142.34 248.598 140.968C247.56 139.562 247.041 137.738 247.041 135.495C247.041 133.219 247.61 131.278 248.748 129.671C249.886 128.031 251.459 126.793 253.468 125.956C255.476 125.119 257.752 124.701 260.296 124.701C264.413 124.701 267.693 125.671 270.136 127.613C272.613 129.521 273.935 132.215 274.102 135.696H263.408C263.375 134.625 263.04 133.822 262.404 133.286C261.802 132.751 261.015 132.483 260.045 132.483C259.308 132.483 258.706 132.7 258.237 133.135C257.769 133.571 257.534 134.19 257.534 134.993C257.534 135.662 257.785 136.248 258.287 136.75C258.823 137.219 259.476 137.637 260.245 138.005C261.015 138.34 262.153 138.775 263.659 139.311C265.902 140.081 267.743 140.85 269.182 141.62C270.655 142.357 271.91 143.411 272.948 144.783C274.019 146.122 274.554 147.829 274.554 149.904C274.554 152.013 274.019 153.904 272.948 155.578C271.91 157.251 270.387 158.573 268.379 159.544C266.404 160.515 264.061 161 261.35 161Z" fill="white"/>
<path d="M310.056 125.253V133.085H300.617V160.648H290.777V133.085H281.438V125.253H310.056Z" fill="white"/>
</svg>
