<?xml version="1.0" standalone="no"?>
<!DOCTYPE svg PUBLIC "-//W3C//DTD SVG 20010904//EN"
 "http://www.w3.org/TR/2001/REC-SVG-20010904/DTD/svg10.dtd">
<svg version="1.0" xmlns="http://www.w3.org/2000/svg"
 width="4886.000000pt" height="4886.000000pt" viewBox="0 0 4886.000000 4886.000000"
 preserveAspectRatio="xMidYMid meet">
<metadata>
Created by potrace 1.14, written by Peter Selinger 2001-2017
</metadata>
<g transform="translate(0.000000,4886.000000) scale(0.100000,-0.100000)"
fill="#000000" stroke="none">
<path d="M23089 48806 c-2 -2 -89 -7 -194 -11 -270 -11 -406 -18 -555 -30 -30
-2 -89 -7 -130 -10 -41 -3 -97 -8 -125 -10 -27 -3 -81 -7 -120 -10 -38 -3 -86
-7 -105 -10 -19 -2 -64 -7 -100 -10 -36 -4 -76 -8 -90 -10 -14 -2 -54 -6 -90
-10 -36 -4 -76 -8 -90 -10 -14 -2 -50 -7 -80 -10 -128 -15 -226 -28 -310 -40
-14 -3 -43 -7 -65 -9 -37 -5 -329 -51 -385 -60 -99 -18 -258 -46 -275 -50 -11
-2 -40 -7 -65 -11 -25 -4 -54 -9 -65 -12 -17 -3 -132 -27 -245 -49 -32 -7
-249 -54 -275 -60 -11 -3 -31 -7 -45 -10 -68 -13 -591 -150 -729 -190 -278
-81 -323 -95 -536 -166 -328 -110 -748 -269 -975 -370 -25 -11 -58 -26 -75
-33 -16 -8 -66 -30 -110 -50 -44 -21 -109 -50 -145 -66 -36 -16 -76 -36 -90
-43 -14 -7 -113 -58 -220 -113 -107 -55 -213 -110 -235 -123 -22 -13 -62 -35
-90 -50 -83 -44 -400 -236 -534 -324 -125 -82 -414 -284 -481 -337 -19 -16
-93 -74 -165 -131 -71 -56 -135 -107 -141 -113 -6 -5 -36 -30 -65 -55 -272
-229 -619 -571 -839 -830 -40 -47 -82 -96 -94 -110 -185 -217 -465 -611 -643
-905 -309 -513 -603 -1179 -769 -1742 -14 -49 -36 -124 -49 -168 -20 -69 -49
-176 -61 -225 -1 -8 -13 -53 -24 -100 -12 -47 -24 -96 -26 -110 -3 -14 -7 -32
-9 -40 -2 -8 -7 -31 -10 -50 -3 -19 -8 -43 -11 -52 -6 -21 -7 -27 -45 -223
-16 -88 -33 -180 -36 -205 -3 -25 -14 -94 -24 -155 -17 -106 -18 -763 -18
-17175 0 -9386 4 -17088 9 -17115 4 -28 11 -75 15 -105 3 -30 8 -62 10 -70 3
-8 7 -31 9 -50 3 -19 10 -60 16 -90 6 -30 13 -71 16 -90 3 -19 17 -84 31 -145
13 -60 27 -121 29 -135 3 -14 21 -83 40 -155 19 -71 37 -137 39 -145 27 -112
170 -527 236 -685 7 -16 13 -32 14 -35 6 -18 33 -81 78 -180 28 -63 52 -117
52 -120 1 -8 176 -354 185 -365 4 -5 25 -41 45 -80 21 -38 53 -94 72 -123 18
-29 33 -54 33 -57 0 -8 141 -229 218 -340 346 -504 796 -999 1266 -1396 16
-13 34 -29 40 -35 11 -10 194 -156 251 -199 118 -91 367 -268 434 -310 9 -5
61 -40 116 -76 103 -67 389 -238 505 -301 36 -20 88 -48 115 -63 28 -16 64
-35 80 -42 17 -8 39 -19 50 -25 87 -49 402 -198 580 -274 83 -36 159 -69 170
-74 18 -8 176 -70 380 -148 116 -44 375 -132 565 -192 214 -67 216 -67 275
-84 28 -8 76 -21 108 -30 31 -9 83 -23 115 -32 60 -16 286 -74 312 -79 8 -2
42 -10 75 -18 33 -9 71 -18 85 -21 14 -2 84 -18 155 -34 72 -17 211 -46 310
-66 223 -43 216 -42 355 -66 63 -11 126 -22 140 -25 65 -11 280 -45 325 -50
28 -3 61 -8 75 -11 14 -2 34 -6 45 -8 12 -2 52 -7 90 -11 38 -3 72 -8 75 -10
3 -1 34 -6 70 -10 79 -8 113 -12 165 -19 22 -3 64 -8 93 -11 93 -9 156 -16
187 -20 17 -3 59 -7 95 -10 76 -6 180 -15 230 -20 19 -2 71 -7 115 -10 44 -3
103 -8 130 -10 97 -7 231 -16 305 -20 41 -2 118 -6 170 -9 384 -22 682 -29
1335 -31 341 -1 649 -5 685 -9 36 -4 83 -9 105 -11 22 -2 85 -7 140 -10 55 -3
129 -8 165 -10 461 -28 1535 -28 1935 0 33 2 107 7 165 10 58 3 134 8 170 10
60 5 98 8 250 20 65 6 260 25 310 30 19 2 60 7 90 10 121 12 156 16 170 20 8
2 44 6 80 10 36 3 76 7 90 10 14 2 94 14 179 25 84 12 161 23 171 25 10 2 40
7 67 11 26 3 57 8 68 10 10 2 37 6 60 9 22 3 47 8 55 10 8 2 33 7 55 10 23 3
52 8 65 10 14 3 63 12 110 21 47 9 94 18 105 20 11 3 36 7 55 10 19 3 64 12
100 20 36 7 76 15 90 18 54 9 316 70 529 122 413 103 827 227 1196 360 55 19
114 40 130 46 17 5 44 16 60 23 17 7 41 16 55 20 14 4 43 15 65 25 22 10 110
46 195 80 333 136 787 353 1060 507 25 14 125 73 223 132 98 58 186 111 195
116 38 22 98 60 107 68 6 4 53 36 105 70 226 148 631 451 736 552 12 11 39 34
60 52 113 93 236 206 403 373 227 226 370 382 521 569 19 24 40 49 47 56 6 6
74 95 150 196 192 256 410 588 530 808 20 36 39 68 42 71 17 14 309 614 352
723 11 28 27 66 34 82 74 161 272 731 321 922 2 10 13 52 25 93 44 157 139
556 153 640 3 19 12 67 21 105 13 62 15 1278 15 10757 l0 10686 -36 104 c-73
212 -193 471 -320 693 -81 141 -279 441 -351 530 -5 6 -33 42 -63 80 -30 39
-57 72 -60 75 -3 3 -27 32 -55 65 -60 73 -93 109 -168 189 -32 33 -68 72 -81
86 -40 44 -259 253 -331 316 -276 241 -632 500 -935 679 -63 37 -126 75 -140
84 -14 8 -43 25 -65 37 -22 11 -67 36 -100 54 -214 118 -639 315 -855 396 -36
13 -74 28 -85 34 -82 38 -508 180 -765 255 -157 46 -580 154 -660 169 -14 3
-79 16 -145 30 -66 15 -133 29 -150 31 -16 3 -61 12 -100 20 -38 8 -86 17
-105 20 -19 3 -46 7 -60 10 -14 3 -47 7 -75 11 -27 3 -52 8 -55 9 -3 2 -26 6
-50 10 -25 3 -70 10 -100 15 -30 5 -77 12 -105 15 -87 11 -118 15 -144 20 -35
5 -95 13 -161 20 -30 3 -66 8 -80 10 -14 2 -52 7 -85 10 -182 17 -267 26 -305
30 -32 4 -97 9 -255 20 -33 3 -105 7 -160 11 -55 3 -125 7 -155 9 -430 27
-1749 27 -2145 0 -27 -2 -102 -6 -165 -10 -63 -3 -137 -8 -165 -10 -27 -2 -88
-7 -135 -10 -47 -3 -107 -8 -135 -10 -27 -3 -79 -7 -115 -10 -36 -2 -85 -7
-110 -10 -25 -3 -70 -8 -100 -10 -97 -10 -221 -23 -270 -30 -14 -2 -50 -7 -80
-10 -90 -10 -114 -13 -145 -19 -38 -6 -97 -14 -155 -21 -282 -36 -827 -149
-1126 -234 -438 -124 -768 -267 -1048 -454 -147 -97 -306 -261 -390 -401 l-36
-60 -1 225 c0 123 -2 442 -4 709 -2 267 -6 908 -10 1425 -10 1593 -15 2292
-19 3030 -3 391 -8 1138 -11 1660 l-6 950 81 75 c45 41 87 80 93 85 67 60 260
196 402 282 45 28 235 123 295 148 188 79 401 140 600 169 158 24 464 25 587
2 10 -2 43 -7 73 -12 30 -4 57 -8 60 -9 3 -1 19 -4 35 -8 17 -4 39 -9 50 -11
85 -17 329 -94 382 -121 15 -8 32 -15 37 -15 13 0 244 -114 326 -161 178 -103
365 -235 552 -393 l107 -90 -4 -441 c-10 -928 -15 -1307 -20 -1815 -3 -289 -8
-685 -10 -880 -2 -195 -7 -643 -10 -995 -4 -352 -8 -679 -9 -727 -1 -70 2 -88
14 -90 8 -2 2281 -3 5050 -3 l5035 0 2 3420 c2 2044 -1 3434 -6 3455 -5 19
-12 53 -15 75 -9 73 -17 119 -27 174 -6 30 -12 64 -14 75 -11 86 -97 460 -154
666 -32 121 -106 356 -149 480 -75 212 -91 254 -147 390 -31 74 -57 140 -58
145 -2 6 -15 37 -31 70 -15 33 -37 83 -49 110 -27 64 -235 479 -283 565 -249
446 -640 1005 -919 1316 -5 6 -41 47 -80 90 -228 257 -514 535 -789 769 -33
28 -64 55 -70 60 -21 21 -371 291 -436 338 -77 54 -449 304 -500 335 -108 65
-300 178 -335 197 -22 12 -82 45 -133 74 -108 60 -511 262 -562 281 -19 7 -39
17 -45 21 -14 10 -350 154 -470 201 -467 183 -907 325 -1435 462 -74 19 -146
37 -160 40 -14 2 -81 18 -150 34 -113 27 -406 90 -455 98 -11 1 -72 12 -135
24 -63 12 -124 24 -135 25 -11 2 -63 11 -115 20 -105 18 -204 33 -265 42 -42
5 -57 7 -115 17 -47 7 -174 25 -230 31 -25 3 -63 8 -85 11 -87 11 -101 12
-265 29 -14 2 -56 6 -95 10 -38 3 -81 8 -95 10 -14 2 -63 7 -110 11 -47 3
-101 8 -120 9 -19 2 -78 6 -130 9 -52 4 -113 8 -135 11 -22 2 -94 7 -160 10
-66 4 -147 8 -180 10 -313 19 -1043 25 -1910 16 -137 -2 -272 0 -300 4 -53 7
-1279 17 -1286 11z"/>
</g>
</svg>
